<?xml version="1.0" encoding="UTF-8" standalone="no"?>
<svg
   xmlns:dc="http://purl.org/dc/elements/1.1/"
   xmlns:cc="http://creativecommons.org/ns#"
   xmlns:rdf="http://www.w3.org/1999/02/22-rdf-syntax-ns#"
   xmlns:svg="http://www.w3.org/2000/svg"
   xmlns="http://www.w3.org/2000/svg"
   xmlns:sodipodi="http://sodipodi.sourceforge.net/DTD/sodipodi-0.dtd"
   xmlns:inkscape="http://www.inkscape.org/namespaces/inkscape"
   width="210mm"
   height="297mm"
   viewBox="0 0 210 297"
   version="1.1"
   id="svg8"
   inkscape:version="1.0.2-2 (e86c870879, 2021-01-15)"
   sodipodi:docname="maqsvg2.svg">
  <defs
     id="defs2">
    <rect
       x="113.12819"
       y="102.38232"
       width="22.04989"
       height="10.58604"
       id="rect2749" />
    <rect
       x="112.83297"
       y="77.671677"
       width="22.64033"
       height="15.499474"
       id="rect2743" />
    <rect
       x="113.12819"
       y="57.874466"
       width="22.04989"
       height="10.586032"
       id="rect2737" />
    <rect
       x="72.12658"
       y="97.468881"
       width="22.049887"
       height="10.586029"
       id="rect2731" />
    <rect
       x="72.12658"
       y="77.671677"
       width="22.049887"
       height="10.586032"
       id="rect2725" />
    <rect
       x="72.126584"
       y="57.874466"
       width="22.049887"
       height="10.586032"
       id="rect2555" />
    <marker
       style="overflow:visible"
       id="marker1856"
       refX="0"
       refY="0"
       orient="auto"
       inkscape:stockid="Arrow2Lend"
       inkscape:isstock="true">
      <path
         transform="matrix(-1.1,0,0,-1.1,-1.1,0)"
         d="M 8.7185878,4.0337352 -2.2072895,0.01601326 8.7185884,-4.0017078 c -1.7454984,2.3720609 -1.7354408,5.6174519 -6e-7,8.035443 z"
         style="fill:#000000;fill-opacity:1;fill-rule:evenodd;stroke:#000000;stroke-width:0.625;stroke-linejoin:round;stroke-opacity:1"
         id="path1854" />
    </marker>
    <marker
       style="overflow:visible"
       id="marker1845"
       refX="0"
       refY="0"
       orient="auto"
       inkscape:stockid="Arrow2Lend"
       inkscape:isstock="true">
      <path
         transform="matrix(-1.1,0,0,-1.1,-1.1,0)"
         d="M 8.7185878,4.0337352 -2.2072895,0.01601326 8.7185884,-4.0017078 c -1.7454984,2.3720609 -1.7354408,5.6174519 -6e-7,8.035443 z"
         style="fill:#000000;fill-opacity:1;fill-rule:evenodd;stroke:#000000;stroke-width:0.625;stroke-linejoin:round;stroke-opacity:1"
         id="path1843" />
    </marker>
    <marker
       style="overflow:visible"
       id="marker1835"
       refX="0"
       refY="0"
       orient="auto"
       inkscape:stockid="Arrow2Lend"
       inkscape:isstock="true">
      <path
         transform="matrix(-1.1,0,0,-1.1,-1.1,0)"
         d="M 8.7185878,4.0337352 -2.2072895,0.01601326 8.7185884,-4.0017078 c -1.7454984,2.3720609 -1.7354408,5.6174519 -6e-7,8.035443 z"
         style="fill:#000000;fill-opacity:1;fill-rule:evenodd;stroke:#000000;stroke-width:0.625;stroke-linejoin:round;stroke-opacity:1"
         id="path1833" />
    </marker>
    <marker
       style="overflow:visible;"
       id="marker1585"
       refX="0.0"
       refY="0.0"
       orient="auto"
       inkscape:stockid="Arrow1Mend"
       inkscape:isstock="true">
      <path
         transform="scale(0.4) rotate(180) translate(10,0)"
         style="fill-rule:evenodd;stroke:#000000;stroke-width:1pt;stroke-opacity:1;fill:#000000;fill-opacity:1"
         d="M 0.0,0.0 L 5.0,-5.0 L -12.5,0.0 L 5.0,5.0 L 0.0,0.0 z "
         id="path1583" />
    </marker>
    <rect
       x="77.905093"
       y="114.51915"
       width="3.7415825"
       height="3.2070707"
       id="rect1521" />
    <marker
       style="overflow:visible"
       id="marker12898"
       refX="0.0"
       refY="0.0"
       orient="auto"
       inkscape:stockid="Arrow1Mstart"
       inkscape:isstock="true">
      <path
         transform="scale(0.4) translate(10,0)"
         style="fill-rule:evenodd;stroke:#000000;stroke-width:1pt;stroke-opacity:1;fill:#000000;fill-opacity:1"
         d="M 0.0,0.0 L 5.0,-5.0 L -12.5,0.0 L 5.0,5.0 L 0.0,0.0 z "
         id="path12896" />
    </marker>
    <marker
       style="overflow:visible;"
       id="marker11941"
       refX="0.0"
       refY="0.0"
       orient="auto"
       inkscape:stockid="Arrow1Mend"
       inkscape:isstock="true">
      <path
         transform="scale(0.4) rotate(180) translate(10,0)"
         style="fill-rule:evenodd;stroke:#000000;stroke-width:1pt;stroke-opacity:1;fill:#000000;fill-opacity:1"
         d="M 0.0,0.0 L 5.0,-5.0 L -12.5,0.0 L 5.0,5.0 L 0.0,0.0 z "
         id="path11939" />
    </marker>
    <marker
       style="overflow:visible"
       id="marker11651"
       refX="0"
       refY="0"
       orient="auto"
       inkscape:stockid="Arrow2Lend"
       inkscape:isstock="true">
      <path
         transform="matrix(-1.1,0,0,-1.1,-1.1,0)"
         d="M 8.7185878,4.0337352 -2.2072895,0.01601326 8.7185884,-4.0017078 c -1.7454984,2.3720609 -1.7354408,5.6174519 -6e-7,8.035443 z"
         style="fill:#000000;fill-opacity:1;fill-rule:evenodd;stroke:#000000;stroke-width:0.625;stroke-linejoin:round;stroke-opacity:1"
         id="path11649" />
    </marker>
    <rect
       x="66.636335"
       y="82.061242"
       width="11.024943"
       height="6.1997138"
       id="rect11541" />
    <rect
       x="66.636335"
       y="82.061239"
       width="0"
       height="4.6055895"
       id="rect11521" />
    <rect
       x="55.611389"
       y="108.05816"
       width="22.049889"
       height="10.586029"
       id="rect11503" />
    <rect
       x="55.611389"
       y="88.260956"
       width="22.049889"
       height="10.586029"
       id="rect11497" />
    <rect
       x="55.611389"
       y="88.260956"
       width="22.049889"
       height="10.586029"
       id="rect11447" />
    <rect
       x="55.611393"
       y="68.463745"
       width="22.049885"
       height="10.586029"
       id="rect11441" />
    <rect
       x="84.185606"
       y="123.47222"
       width="29.90649"
       height="60.788863"
       id="rect10168" />
    <marker
       style="overflow:visible;"
       id="marker9948"
       refX="0.0"
       refY="0.0"
       orient="auto"
       inkscape:stockid="Arrow2Lend"
       inkscape:isstock="true">
      <path
         transform="scale(1.1) rotate(180) translate(1,0)"
         d="M 8.7185878,4.0337352 L -2.2072895,0.016013256 L 8.7185884,-4.0017078 C 6.9730900,-1.6296469 6.9831476,1.6157441 8.7185878,4.0337352 z "
         style="fill-rule:evenodd;stroke-width:0.625;stroke-linejoin:round;stroke:#000000;stroke-opacity:1;fill:#000000;fill-opacity:1"
         id="path9946" />
    </marker>
    <marker
       style="overflow:visible;"
       id="marker9938"
       refX="0.0"
       refY="0.0"
       orient="auto"
       inkscape:stockid="Arrow2Lend"
       inkscape:isstock="true">
      <path
         transform="scale(1.1) rotate(180) translate(1,0)"
         d="M 8.7185878,4.0337352 L -2.2072895,0.016013256 L 8.7185884,-4.0017078 C 6.9730900,-1.6296469 6.9831476,1.6157441 8.7185878,4.0337352 z "
         style="fill-rule:evenodd;stroke-width:0.625;stroke-linejoin:round;stroke:#000000;stroke-opacity:1;fill:#000000;fill-opacity:1"
         id="path9936" />
    </marker>
    <marker
       style="overflow:visible;"
       id="marker3441"
       refX="0.0"
       refY="0.0"
       orient="auto"
       inkscape:stockid="Arrow2Lend"
       inkscape:isstock="true">
      <path
         transform="scale(1.1) rotate(180) translate(1,0)"
         d="M 8.7185878,4.0337352 L -2.2072895,0.016013256 L 8.7185884,-4.0017078 C 6.9730900,-1.6296469 6.9831476,1.6157441 8.7185878,4.0337352 z "
         style="fill-rule:evenodd;stroke-width:0.625;stroke-linejoin:round;stroke:#000000;stroke-opacity:1;fill:#000000;fill-opacity:1"
         id="path3439" />
    </marker>
    <marker
       style="overflow:visible"
       id="marker3151"
       refX="0.0"
       refY="0.0"
       orient="auto"
       inkscape:stockid="Arrow1Lstart"
       inkscape:isstock="true">
      <path
         transform="scale(0.8) translate(12.5,0)"
         style="fill-rule:evenodd;stroke:#000000;stroke-width:1pt;stroke-opacity:1;fill:#000000;fill-opacity:1"
         d="M 0.0,0.0 L 5.0,-5.0 L -12.5,0.0 L 5.0,5.0 L 0.0,0.0 z "
         id="path3149" />
    </marker>
    <marker
       style="overflow:visible"
       id="marker3081"
       refX="0.0"
       refY="0.0"
       orient="auto"
       inkscape:stockid="Arrow1Lstart"
       inkscape:isstock="true">
      <path
         transform="scale(0.8) translate(12.5,0)"
         style="fill-rule:evenodd;stroke:#000000;stroke-width:1pt;stroke-opacity:1;fill:#000000;fill-opacity:1"
         d="M 0.0,0.0 L 5.0,-5.0 L -12.5,0.0 L 5.0,5.0 L 0.0,0.0 z "
         id="path3079" />
    </marker>
    <marker
       style="overflow:visible"
       id="Arrow2Lstart"
       refX="0.0"
       refY="0.0"
       orient="auto"
       inkscape:stockid="Arrow2Lstart"
       inkscape:isstock="true">
      <path
         transform="scale(1.1) translate(1,0)"
         d="M 8.7185878,4.0337352 L -2.2072895,0.016013256 L 8.7185884,-4.0017078 C 6.9730900,-1.6296469 6.9831476,1.6157441 8.7185878,4.0337352 z "
         style="fill-rule:evenodd;stroke-width:0.625;stroke-linejoin:round;stroke:#000000;stroke-opacity:1;fill:#000000;fill-opacity:1"
         id="path955" />
    </marker>
    <marker
       style="overflow:visible"
       id="Arrow1Lstart"
       refX="0.0"
       refY="0.0"
       orient="auto"
       inkscape:stockid="Arrow1Lstart"
       inkscape:isstock="true">
      <path
         transform="scale(0.8) translate(12.5,0)"
         style="fill-rule:evenodd;stroke:#000000;stroke-width:1pt;stroke-opacity:1;fill:#000000;fill-opacity:1"
         d="M 0.0,0.0 L 5.0,-5.0 L -12.5,0.0 L 5.0,5.0 L 0.0,0.0 z "
         id="path937" />
    </marker>
    <marker
       style="overflow:visible;"
       id="marker1551"
       refX="0.0"
       refY="0.0"
       orient="auto"
       inkscape:stockid="Arrow1Lend"
       inkscape:isstock="true">
      <path
         transform="scale(0.8) rotate(180) translate(12.5,0)"
         style="fill-rule:evenodd;stroke:#000000;stroke-width:1pt;stroke-opacity:1;fill:#ffffff;fill-opacity:1"
         d="M 0.0,0.0 L 5.0,-5.0 L -12.5,0.0 L 5.0,5.0 L 0.0,0.0 z "
         id="path1549" />
    </marker>
    <marker
       style="overflow:visible"
       id="DiamondL"
       refX="0.0"
       refY="0.0"
       orient="auto"
       inkscape:stockid="DiamondL"
       inkscape:isstock="true">
      <path
         transform="scale(0.8)"
         style="fill-rule:evenodd;stroke:#000000;stroke-width:1pt;stroke-opacity:1;fill:#000000;fill-opacity:1"
         d="M 0,-7.0710768 L -7.0710894,0 L 0,7.0710589 L 7.0710462,0 L 0,-7.0710768 z "
         id="path1016" />
    </marker>
    <marker
       style="overflow:visible;"
       id="Arrow2Lend"
       refX="0.0"
       refY="0.0"
       orient="auto"
       inkscape:stockid="Arrow2Lend"
       inkscape:isstock="true">
      <path
         transform="scale(1.1) rotate(180) translate(1,0)"
         d="M 8.7185878,4.0337352 L -2.2072895,0.016013256 L 8.7185884,-4.0017078 C 6.9730900,-1.6296469 6.9831476,1.6157441 8.7185878,4.0337352 z "
         style="fill-rule:evenodd;stroke-width:0.625;stroke-linejoin:round;stroke:#000000;stroke-opacity:1;fill:#ffffff;fill-opacity:1"
         id="path958" />
    </marker>
    <marker
       style="overflow:visible;"
       id="Arrow1Mend"
       refX="0.0"
       refY="0.0"
       orient="auto"
       inkscape:stockid="Arrow1Mend"
       inkscape:isstock="true">
      <path
         transform="scale(0.4) rotate(180) translate(10,0)"
         style="fill-rule:evenodd;stroke:#000000;stroke-width:1pt;stroke-opacity:1;fill:#000000;fill-opacity:1"
         d="M 0.0,0.0 L 5.0,-5.0 L -12.5,0.0 L 5.0,5.0 L 0.0,0.0 z "
         id="path946" />
    </marker>
    <marker
       style="overflow:visible;"
       id="Arrow1Lend"
       refX="0.0"
       refY="0.0"
       orient="auto"
       inkscape:stockid="Arrow1Lend"
       inkscape:isstock="true">
      <path
         transform="scale(0.8) rotate(180) translate(12.5,0)"
         style="fill-rule:evenodd;stroke:#000000;stroke-width:1pt;stroke-opacity:1;fill:#ffffff;fill-opacity:1"
         d="M 0.0,0.0 L 5.0,-5.0 L -12.5,0.0 L 5.0,5.0 L 0.0,0.0 z "
         id="path940" />
    </marker>
    <rect
       x="55.611393"
       y="46.147881"
       width="24.989697"
       height="22.183372"
       id="rect865" />
    <rect
       x="55.611393"
       y="46.147881"
       width="24.989697"
       height="22.183372"
       id="rect865-2" />
    <rect
       x="55.611393"
       y="46.147881"
       width="24.989697"
       height="22.183372"
       id="rect894" />
    <rect
       x="55.611393"
       y="46.147881"
       width="24.989697"
       height="22.183372"
       id="rect865-2-4" />
    <rect
       x="55.611393"
       y="46.147881"
       width="24.989697"
       height="22.183372"
       id="rect1234" />
    <rect
       x="55.611393"
       y="46.147881"
       width="24.989697"
       height="22.183372"
       id="rect865-2-6" />
    <rect
       x="55.611393"
       y="46.147881"
       width="24.989697"
       height="22.183372"
       id="rect1287" />
    <marker
       style="overflow:visible"
       id="marker9948-0"
       refX="0"
       refY="0"
       orient="auto"
       inkscape:stockid="Arrow2Lend"
       inkscape:isstock="true">
      <path
         transform="matrix(-1.1,0,0,-1.1,-1.1,0)"
         d="M 8.7185878,4.0337352 -2.2072895,0.01601326 8.7185884,-4.0017078 c -1.7454984,2.3720609 -1.7354408,5.6174519 -6e-7,8.035443 z"
         style="fill:#000000;fill-opacity:1;fill-rule:evenodd;stroke:#000000;stroke-width:0.625;stroke-linejoin:round;stroke-opacity:1"
         id="path9946-3" />
    </marker>
    <marker
       style="overflow:visible"
       id="marker9948-6"
       refX="0"
       refY="0"
       orient="auto"
       inkscape:stockid="Arrow2Lend"
       inkscape:isstock="true">
      <path
         transform="matrix(-1.1,0,0,-1.1,-1.1,0)"
         d="M 8.7185878,4.0337352 -2.2072895,0.01601326 8.7185884,-4.0017078 c -1.7454984,2.3720609 -1.7354408,5.6174519 -6e-7,8.035443 z"
         style="fill:#000000;fill-opacity:1;fill-rule:evenodd;stroke:#000000;stroke-width:0.625;stroke-linejoin:round;stroke-opacity:1"
         id="path9946-4" />
    </marker>
    <marker
       style="overflow:visible"
       id="marker9948-1"
       refX="0"
       refY="0"
       orient="auto"
       inkscape:stockid="Arrow2Lend"
       inkscape:isstock="true">
      <path
         transform="matrix(-1.1,0,0,-1.1,-1.1,0)"
         d="M 8.7185878,4.0337352 -2.2072895,0.01601326 8.7185884,-4.0017078 c -1.7454984,2.3720609 -1.7354408,5.6174519 -6e-7,8.035443 z"
         style="fill:#000000;fill-opacity:1;fill-rule:evenodd;stroke:#000000;stroke-width:0.625;stroke-linejoin:round;stroke-opacity:1"
         id="path9946-39" />
    </marker>
    <rect
       x="66.636337"
       y="82.061241"
       width="11.024943"
       height="6.1997137"
       id="rect11541-0" />
    <rect
       x="66.636337"
       y="82.061241"
       width="11.024943"
       height="6.1997137"
       id="rect11554" />
    <marker
       style="overflow:visible"
       id="marker11931-1"
       refX="0"
       refY="0"
       orient="auto"
       inkscape:stockid="Arrow1Mend"
       inkscape:isstock="true">
      <path
         transform="matrix(-0.4,0,0,-0.4,-4,0)"
         style="fill:#000000;fill-opacity:1;fill-rule:evenodd;stroke:#000000;stroke-width:1pt;stroke-opacity:1"
         d="M 0,0 5,-5 -12.5,0 5,5 Z"
         id="path11929-9" />
    </marker>
    <marker
       style="overflow:visible"
       id="marker11941-3"
       refX="0"
       refY="0"
       orient="auto"
       inkscape:stockid="Arrow1Mend"
       inkscape:isstock="true">
      <path
         transform="matrix(-0.4,0,0,-0.4,-4,0)"
         style="fill:#000000;fill-opacity:1;fill-rule:evenodd;stroke:#000000;stroke-width:1pt;stroke-opacity:1"
         d="M 0,0 5,-5 -12.5,0 5,5 Z"
         id="path11939-5" />
    </marker>
    <rect
       x="55.611393"
       y="68.463745"
       width="22.049885"
       height="10.586029"
       id="rect11441-8" />
    <rect
       x="55.611393"
       y="68.463745"
       width="22.049885"
       height="10.586029"
       id="rect12298" />
    <rect
       x="55.611389"
       y="88.260956"
       width="22.345104"
       height="13.58005"
       id="rect11497-1" />
    <rect
       x="55.611389"
       y="88.260956"
       width="22.049889"
       height="10.586029"
       id="rect12301" />
    <rect
       x="55.611389"
       y="108.05816"
       width="22.049889"
       height="10.586029"
       id="rect11503-8" />
    <rect
       x="55.611389"
       y="108.05816"
       width="22.049889"
       height="10.586029"
       id="rect12304" />
    <rect
       x="66.636337"
       y="82.061241"
       width="16.363584"
       height="4.6406415"
       id="rect11541-3" />
    <rect
       x="66.636337"
       y="82.061241"
       width="11.024943"
       height="6.1997137"
       id="rect12307" />
    <rect
       x="66.636337"
       y="82.061241"
       width="11.024943"
       height="6.1997137"
       id="rect11541-0-0" />
    <rect
       x="66.636337"
       y="82.061241"
       width="11.024943"
       height="6.1997137"
       id="rect12310" />
    <marker
       style="overflow:visible"
       id="marker11931-3"
       refX="0"
       refY="0"
       orient="auto"
       inkscape:stockid="Arrow1Mend"
       inkscape:isstock="true">
      <path
         transform="matrix(-0.4,0,0,-0.4,-4,0)"
         style="fill:#000000;fill-opacity:1;fill-rule:evenodd;stroke:#000000;stroke-width:1pt;stroke-opacity:1"
         d="M 0,0 5,-5 -12.5,0 5,5 Z"
         id="path11929-98" />
    </marker>
    <marker
       style="overflow:visible"
       id="marker11941-6"
       refX="0"
       refY="0"
       orient="auto"
       inkscape:stockid="Arrow1Mend"
       inkscape:isstock="true">
      <path
         transform="matrix(-0.4,0,0,-0.4,-4,0)"
         style="fill:#000000;fill-opacity:1;fill-rule:evenodd;stroke:#000000;stroke-width:1pt;stroke-opacity:1"
         d="M 0,0 5,-5 -12.5,0 5,5 Z"
         id="path11939-4" />
    </marker>
    <marker
       style="overflow:visible"
       id="marker12898-9"
       refX="0"
       refY="0"
       orient="auto"
       inkscape:stockid="Arrow1Mstart"
       inkscape:isstock="true">
      <path
         transform="matrix(0.4,0,0,0.4,4,0)"
         style="fill:#000000;fill-opacity:1;fill-rule:evenodd;stroke:#000000;stroke-width:1pt;stroke-opacity:1"
         d="M 0,0 5,-5 -12.5,0 5,5 Z"
         id="path12896-7" />
    </marker>
    <rect
       x="77.90509"
       y="114.51915"
       width="3.7415824"
       height="3.2070706"
       id="rect1521-8" />
    <rect
       x="77.90509"
       y="114.51915"
       width="3.7415824"
       height="3.2070706"
       id="rect1534" />
  </defs>
  <sodipodi:namedview
     id="base"
     pagecolor="#ffffff"
     bordercolor="#666666"
     borderopacity="1.0"
     inkscape:pageopacity="0.0"
     inkscape:pageshadow="2"
     inkscape:zoom="2.8001429"
     inkscape:cx="363.63201"
     inkscape:cy="329.84787"
     inkscape:document-units="mm"
     inkscape:current-layer="layer1"
     inkscape:document-rotation="0"
     showgrid="false"
     inkscape:snap-page="false"
     inkscape:snap-bbox="true"
     inkscape:snap-grids="true"
     inkscape:snap-text-baseline="false"
     inkscape:snap-center="false"
     inkscape:bbox-paths="false"
     inkscape:bbox-nodes="false"
     inkscape:snap-midpoints="true"
     inkscape:snap-intersection-paths="true"
     inkscape:window-width="1920"
     inkscape:window-height="1017"
     inkscape:window-x="-8"
     inkscape:window-y="-8"
     inkscape:window-maximized="1" />
  <metadata
     id="metadata5">
    <rdf:RDF>
      <cc:Work
         rdf:about="">
        <dc:format>image/svg+xml</dc:format>
        <dc:type
           rdf:resource="http://purl.org/dc/dcmitype/StillImage" />
        <dc:title></dc:title>
      </cc:Work>
    </rdf:RDF>
  </metadata>
  <g
     inkscape:label="Capa 1"
     inkscape:groupmode="layer"
     id="layer1">
    <text
       xml:space="preserve"
       id="text10166"
       style="font-style:normal;font-weight:normal;font-size:10.5833px;line-height:1.25;font-family:sans-serif;white-space:pre;shape-inside:url(#rect10168);fill:#000000;fill-opacity:1;stroke:none;" />
    <text
       xml:space="preserve"
       id="text11445"
       style="font-style:normal;font-weight:normal;font-size:10.5833px;line-height:1.25;font-family:sans-serif;white-space:pre;shape-inside:url(#rect11447);fill:#000000;fill-opacity:1;stroke:none;"><tspan
         style="visibility:hidden"
         x="55.611328"
         y="108.50312"><tspan>M</tspan></tspan></text>
    <path
       id="path14"
       style="fill:#000000;fill-opacity:0;stroke-width:0.264583"
       inkscape:transform-center-x="1.2388075"
       inkscape:transform-center-y="-0.25991971"
       d="m 125.48485,114.33536 -15.41796,-8.05887 -7.03779,15.91001 2.90004,-17.15368 -17.306115,-1.77687 17.210285,-2.54268 -3.65799,-17.008177 7.7365,15.582219 15.04536,-8.734764 -12.42886,12.173022 z" />
    <path
       id="path16"
       style="fill:#000000;fill-opacity:0;stroke-width:0.264583"
       inkscape:transform-center-x="-0.90063738"
       inkscape:transform-center-y="-0.98819006"
       d="m 125.10688,97.515424 -16.10016,4.785546 5.82379,15.75436 -9.52655,-13.83335 -13.183643,10.40712 10.212433,-13.33502 -13.971728,-9.322413 15.838178,5.591853 4.54864,-16.168689 -0.4239,16.790978 z" />
    <path
       id="rect10"
       style="fill:#000000;fill-opacity:0;stroke-width:0.264583"
       d="M 96.370911,76.88858 H 125.63692 V 91.053865 H 96.370911 Z" />
    <path
       id="rect18"
       style="fill:#000000;fill-opacity:0;stroke-width:0.264583"
       d="m 83.15152,77.671677 h 51.02679 V 104.50799 H 83.15152 Z" />
    <path
       id="rect26"
       style="fill:#ffffff;fill-opacity:1;stroke:none;stroke-width:0.499999;stroke-miterlimit:4;stroke-dasharray:none;stroke-dashoffset:5;stroke-opacity:1;paint-order:fill markers stroke"
       d="M 67.720867,56.521685 H 147.22087 V 118.2815 H 67.720867 Z" />
    <path
       id="rect861"
       style="fill:#ffffff;fill-opacity:1;stroke:#000000;stroke-width:0.1;stroke-miterlimit:4;stroke-dasharray:none;stroke-opacity:1;paint-order:fill markers stroke"
       d="M 72.126584,57.874466 H 94.176471 V 68.460498 H 72.126584 Z" />
    <path
       id="rect861-5"
       style="fill:#ffffff;fill-opacity:1;stroke:#000000;stroke-width:0.1;stroke-miterlimit:4;stroke-dasharray:none;stroke-opacity:1;paint-order:fill markers stroke"
       d="M 72.12658,77.671677 H 94.176467 V 88.257709 H 72.12658 Z" />
    <path
       id="rect861-5-1"
       style="fill:#ffffff;fill-opacity:1;stroke:#000000;stroke-width:0.1;stroke-miterlimit:4;stroke-dasharray:none;stroke-opacity:1;paint-order:fill markers stroke"
       d="M 72.12658,97.468881 H 94.176467 V 108.05491 H 72.12658 Z" />
    <path
       style="fill:none;stroke:#000000;stroke-width:0.165;stroke-linecap:butt;stroke-linejoin:miter;stroke-miterlimit:4;stroke-dasharray:none;stroke-opacity:1;marker-mid:url(#marker1856)"
       d="m 83.151524,88.257712 v 6.022929 3.18825"
       id="path3237"
       sodipodi:nodetypes="ccc" />
    <path
       style="fill:none;stroke:#000000;stroke-width:0.165;stroke-linecap:butt;stroke-linejoin:miter;stroke-miterlimit:4;stroke-dasharray:none;stroke-opacity:1;marker-mid:url(#marker9938)"
       d="m 83.151526,68.460495 v 6.022929 3.18825"
       id="path3237-5"
       sodipodi:nodetypes="ccc" />
    <path
       style="fill:none;stroke:#000000;stroke-width:1.1;stroke-linecap:butt;stroke-linejoin:miter;stroke-miterlimit:4;stroke-dasharray:none;stroke-opacity:1"
       d="m 94.176468,82.96469 h 6.023222"
       id="path11431" />
    <path
       id="path11433"
       style="fill:#000000;fill-opacity:1;stroke:#000000;stroke-width:1.1;stroke-linecap:square;stroke-linejoin:miter;stroke-miterlimit:4;stroke-dasharray:none;stroke-opacity:1;paint-order:fill markers stroke"
       inkscape:transform-center-x="-0.43828661"
       inkscape:transform-center-y="-1.1031145e-06"
       d="M 100.19969,84.482963 V 81.44642 l 2.62972,1.518271 z" />
    <g
       aria-label="Q1"
       transform="translate(18.352575,-10.589279)"
       id="text11539"
       style="font-size:2.82222px;line-height:1.25;font-family:sans-serif;white-space:pre;shape-inside:url(#rect11541)">
      <path
         d="m 68.74236,85.138327 q -0.08268,0.02067 -0.163987,0.02894 -0.07993,0.0096 -0.163986,0.0096 -0.239779,0 -0.385851,-0.132291 -0.144694,-0.130914 -0.157096,-0.376204 -0.03307,0.0055 -0.06477,0.0069 -0.03032,0.0028 -0.05926,0.0028 -0.216352,0 -0.394119,-0.07166 -0.176389,-0.07166 -0.300412,-0.208084 -0.124023,-0.136425 -0.191547,-0.334863 -0.06615,-0.198437 -0.06615,-0.453374 0,-0.250803 0.06615,-0.44924 0.06615,-0.199815 0.192925,-0.341753 0.121267,-0.135048 0.300412,-0.206706 0.180523,-0.07166 0.392741,-0.07166 0.220486,0 0.395496,0.07304 0.176389,0.07166 0.299034,0.205328 0.125402,0.137804 0.191548,0.337619 0.06752,0.199815 0.06752,0.453374 0,0.376204 -0.15434,0.633897 -0.152962,0.257693 -0.412033,0.361046 0.0055,0.157096 0.07441,0.243913 0.0689,0.08682 0.250803,0.08682 0.0565,0 0.13367,-0.01792 0.07855,-0.01654 0.111621,-0.03032 h 0.03721 z m -0.325217,-1.528243 q 0,-0.399631 -0.179145,-0.615982 -0.179145,-0.21773 -0.489203,-0.21773 -0.312815,0 -0.49196,0.21773 -0.177766,0.216351 -0.177766,0.615982 0,0.403765 0.181901,0.618739 0.1819,0.213596 0.487825,0.213596 0.305924,0 0.486447,-0.213596 0.181901,-0.214974 0.181901,-0.618739 z"
         style="font-size:2.82222px"
         id="path1648" />
      <path
         d="m 70.351907,84.635344 h -1.110698 v -0.209462 h 0.427192 v -1.375281 h -0.427192 v -0.187413 q 0.08682,0 0.186035,-0.01378 0.09922,-0.01516 0.150206,-0.04272 0.06339,-0.03445 0.09922,-0.08682 0.03721,-0.05374 0.04272,-0.143316 h 0.213596 v 1.849326 h 0.418923 z"
         style="font-size:2.82222px"
         id="path1650" />
    </g>
    <g
       aria-label="Q2"
       transform="translate(18.361008,9.222794)"
       id="text11539-0"
       style="font-size:2.82222px;line-height:1.25;font-family:sans-serif;white-space:pre;shape-inside:url(#rect11541-0)">
      <path
         d="m 68.74236,85.138327 q -0.08268,0.02067 -0.163987,0.02894 -0.07993,0.0096 -0.163986,0.0096 -0.239779,0 -0.385851,-0.132291 -0.144694,-0.130914 -0.157096,-0.376204 -0.03307,0.0055 -0.06477,0.0069 -0.03032,0.0028 -0.05926,0.0028 -0.216352,0 -0.394119,-0.07166 -0.176389,-0.07166 -0.300412,-0.208084 -0.124023,-0.136425 -0.191547,-0.334863 -0.06615,-0.198437 -0.06615,-0.453374 0,-0.250803 0.06615,-0.44924 0.06615,-0.199815 0.192925,-0.341753 0.121267,-0.135048 0.300412,-0.206706 0.180523,-0.07166 0.392741,-0.07166 0.220486,0 0.395496,0.07304 0.176389,0.07166 0.299034,0.205328 0.125402,0.137804 0.191548,0.337619 0.06752,0.199815 0.06752,0.453374 0,0.376204 -0.15434,0.633897 -0.152962,0.257693 -0.412033,0.361046 0.0055,0.157096 0.07441,0.243913 0.0689,0.08682 0.250803,0.08682 0.0565,0 0.13367,-0.01792 0.07855,-0.01654 0.111621,-0.03032 h 0.03721 z m -0.325217,-1.528243 q 0,-0.399631 -0.179145,-0.615982 -0.179145,-0.21773 -0.489203,-0.21773 -0.312815,0 -0.49196,0.21773 -0.177766,0.216351 -0.177766,0.615982 0,0.403765 0.181901,0.618739 0.1819,0.213596 0.487825,0.213596 0.305924,0 0.486447,-0.213596 0.181901,-0.214974 0.181901,-0.618739 z"
         style="font-size:2.82222px"
         id="path1677" />
      <path
         d="m 70.46904,84.635344 h -1.389061 v -0.28801 q 0.144694,-0.124023 0.289388,-0.248047 0.146071,-0.124023 0.271473,-0.246668 0.264583,-0.256315 0.362424,-0.406521 0.09784,-0.151584 0.09784,-0.326595 0,-0.159852 -0.106109,-0.249425 -0.10473,-0.09095 -0.293522,-0.09095 -0.125401,0 -0.271473,0.0441 -0.146072,0.0441 -0.285254,0.135048 h -0.01378 v -0.289388 q 0.09784,-0.04823 0.260449,-0.08819 0.163987,-0.03996 0.316949,-0.03996 0.31557,0 0.494715,0.152962 0.179145,0.151585 0.179145,0.412034 0,0.117133 -0.03032,0.219107 -0.02894,0.100597 -0.08682,0.191548 -0.05374,0.08544 -0.12678,0.16812 -0.07166,0.08268 -0.17501,0.183279 -0.14745,0.144694 -0.304547,0.28112 -0.157096,0.135047 -0.293522,0.250802 h 1.103808 z"
         style="font-size:2.82222px"
         id="path1679" />
    </g>
    <g
       aria-label="W=(Q1-Q2)"
       id="text11583"
       style="font-size:2.82222px;line-height:1.25;font-family:sans-serif;stroke-width:0.264583"
       transform="translate(16.515191,-10.589279)">
      <path
         d="m 80.869495,88.280592 -0.5333,2.051897 h -0.307302 l -0.431326,-1.703254 -0.421679,1.703254 h -0.300412 l -0.542947,-2.051897 h 0.279741 l 0.431326,1.70601 0.424436,-1.70601 h 0.276985 l 0.42857,1.722546 0.428569,-1.722546 z"
         style="font-size:2.82222px;stroke-width:0.264583"
         id="path1706" />
      <path
         d="m 82.968246,89.254864 h -1.634352 v -0.220486 h 1.634352 z m 0,0.578776 h -1.634352 v -0.220486 h 1.634352 z"
         style="font-size:2.82222px;stroke-width:0.264583"
         id="path1708" />
      <path
         d="m 84.384868,90.90024 h -0.31557 q -0.243913,-0.279741 -0.37896,-0.61047 -0.135048,-0.330729 -0.135048,-0.745518 0,-0.414789 0.135048,-0.745518 0.135047,-0.330729 0.37896,-0.610471 h 0.31557 v 0.01378 q -0.111621,0.100596 -0.213595,0.232888 -0.100597,0.130913 -0.187413,0.305924 -0.08268,0.169499 -0.135048,0.373448 -0.05099,0.20395 -0.05099,0.429948 0,0.235644 0.04961,0.431325 0.05099,0.195682 0.136426,0.37207 0.08268,0.169499 0.188791,0.305925 0.106109,0.137803 0.212217,0.232888 z"
         style="font-size:2.82222px;stroke-width:0.264583"
         id="path1710" />
      <path
         d="m 86.69308,90.835473 q -0.08268,0.02067 -0.163986,0.02894 -0.07993,0.0096 -0.163987,0.0096 -0.239778,0 -0.38585,-0.132292 -0.144694,-0.130913 -0.157096,-0.376204 -0.03307,0.0055 -0.06477,0.0069 -0.03032,0.0028 -0.05926,0.0028 -0.216351,0 -0.394118,-0.07166 -0.176389,-0.07166 -0.300412,-0.208083 -0.124024,-0.136426 -0.191547,-0.334863 -0.06615,-0.198438 -0.06615,-0.453375 0,-0.250802 0.06615,-0.44924 0.06614,-0.199815 0.192925,-0.341753 0.121267,-0.135048 0.300412,-0.206706 0.180523,-0.07166 0.39274,-0.07166 0.220486,0 0.395497,0.07304 0.176389,0.07166 0.299034,0.205327 0.125402,0.137804 0.191547,0.337619 0.06752,0.199816 0.06752,0.453374 0,0.376205 -0.15434,0.633897 -0.152962,0.257693 -0.412033,0.361046 0.0055,0.157096 0.07441,0.243913 0.0689,0.08682 0.250803,0.08682 0.0565,0 0.133669,-0.01791 0.07855,-0.01654 0.111621,-0.03032 h 0.03721 z m -0.325216,-1.528244 q 0,-0.39963 -0.179145,-0.615982 -0.179145,-0.21773 -0.489203,-0.21773 -0.312815,0 -0.49196,0.21773 -0.177767,0.216352 -0.177767,0.615982 0,0.403765 0.181901,0.618739 0.181901,0.213596 0.487826,0.213596 0.305924,0 0.486447,-0.213596 0.181901,-0.214974 0.181901,-0.618739 z"
         style="font-size:2.82222px;stroke-width:0.264583"
         id="path1712" />
      <path
         d="M 88.302628,90.332489 H 87.19193 v -0.209462 h 0.427192 V 88.747746 H 87.19193 v -0.187413 q 0.08682,0 0.186035,-0.01378 0.09922,-0.01516 0.150206,-0.04272 0.06339,-0.03445 0.09922,-0.08682 0.03721,-0.05374 0.04272,-0.143315 h 0.213596 v 1.849325 h 0.418923 z"
         style="font-size:2.82222px;stroke-width:0.264583"
         id="path1714" />
      <path
         d="m 89.673775,89.55941 h -0.859896 v -0.249425 h 0.859896 z"
         style="font-size:2.82222px;stroke-width:0.264583"
         id="path1716" />
      <path
         d="m 91.990256,90.835473 q -0.08268,0.02067 -0.163987,0.02894 -0.07993,0.0096 -0.163986,0.0096 -0.239779,0 -0.385851,-0.132292 -0.144693,-0.130913 -0.157096,-0.376204 -0.03307,0.0055 -0.06477,0.0069 -0.03032,0.0028 -0.05926,0.0028 -0.216352,0 -0.394119,-0.07166 -0.176388,-0.07166 -0.300412,-0.208083 -0.124023,-0.136426 -0.191547,-0.334863 -0.06615,-0.198438 -0.06615,-0.453375 0,-0.250802 0.06615,-0.44924 0.06615,-0.199815 0.192925,-0.341753 0.121267,-0.135048 0.300412,-0.206706 0.180523,-0.07166 0.392741,-0.07166 0.220486,0 0.395497,0.07304 0.176388,0.07166 0.299034,0.205327 0.125401,0.137804 0.191547,0.337619 0.06752,0.199816 0.06752,0.453374 0,0.376205 -0.154341,0.633897 -0.152962,0.257693 -0.412033,0.361046 0.0055,0.157096 0.07441,0.243913 0.0689,0.08682 0.250803,0.08682 0.0565,0 0.13367,-0.01791 0.07855,-0.01654 0.111621,-0.03032 h 0.03721 z m -0.325217,-1.528244 q 0,-0.39963 -0.179145,-0.615982 -0.179145,-0.21773 -0.489203,-0.21773 -0.312815,0 -0.491959,0.21773 -0.177767,0.216352 -0.177767,0.615982 0,0.403765 0.181901,0.618739 0.181901,0.213596 0.487825,0.213596 0.305924,0 0.486447,-0.213596 0.181901,-0.214974 0.181901,-0.618739 z"
         style="font-size:2.82222px;stroke-width:0.264583"
         id="path1718" />
      <path
         d="m 93.716936,90.332489 h -1.389062 v -0.28801 q 0.144694,-0.124023 0.289388,-0.248046 0.146072,-0.124024 0.271474,-0.246669 0.264583,-0.256315 0.362423,-0.406521 0.09784,-0.151584 0.09784,-0.326595 0,-0.159852 -0.106109,-0.249425 -0.104731,-0.09095 -0.293522,-0.09095 -0.125401,0 -0.271473,0.0441 -0.146072,0.0441 -0.285254,0.135048 h -0.01378 V 88.36603 q 0.09784,-0.04823 0.260449,-0.08819 0.163986,-0.03996 0.316948,-0.03996 0.315571,0 0.494716,0.152962 0.179145,0.151584 0.179145,0.412033 0,0.117133 -0.03032,0.219108 -0.02894,0.100596 -0.08682,0.191547 -0.05374,0.08544 -0.126779,0.16812 -0.07166,0.08268 -0.175011,0.183279 -0.14745,0.144694 -0.304546,0.28112 -0.157096,0.135048 -0.293522,0.250803 h 1.103808 z"
         style="font-size:2.82222px;stroke-width:0.264583"
         id="path1720" />
      <path
         d="m 94.932365,89.544252 q 0,0.414789 -0.135048,0.745518 -0.135047,0.330729 -0.37896,0.61047 h -0.31557 v -0.01378 q 0.106108,-0.09508 0.212217,-0.232888 0.107487,-0.136426 0.188791,-0.305925 0.08544,-0.176388 0.135048,-0.37207 0.05099,-0.195681 0.05099,-0.431325 0,-0.225998 -0.05099,-0.429948 -0.05099,-0.203949 -0.135048,-0.373448 -0.08682,-0.175011 -0.188791,-0.305924 -0.100596,-0.132292 -0.212217,-0.232888 v -0.01378 h 0.31557 q 0.243913,0.279742 0.37896,0.610471 0.135048,0.330729 0.135048,0.745518 z"
         style="font-size:2.82222px;stroke-width:0.264583"
         id="path1722" />
    </g>
    <path
       id="rect861-0"
       style="fill:#ffffff;fill-opacity:1;stroke:#000000;stroke-width:0.1;stroke-miterlimit:4;stroke-dasharray:none;stroke-opacity:1;paint-order:fill markers stroke"
       d="m 113.12819,57.874466 h 22.04989 v 10.586032 h -22.04989 z" />
    <path
       id="rect861-5-4"
       style="fill:#ffffff;fill-opacity:1;stroke:#000000;stroke-width:0.1;stroke-miterlimit:4;stroke-dasharray:none;stroke-opacity:1;paint-order:fill markers stroke"
       d="M 112.83297,77.671677 H 135.4733 V 93.171151 H 112.83297 Z" />
    <path
       id="rect861-5-1-6"
       style="fill:#ffffff;fill-opacity:1;stroke:#000000;stroke-width:0.1;stroke-miterlimit:4;stroke-dasharray:none;stroke-opacity:1;paint-order:fill markers stroke"
       d="m 113.12819,102.38232 h 22.04989 v 10.58604 h -22.04989 z" />
    <path
       style="fill:none;stroke:#000000;stroke-width:0.165;stroke-linecap:butt;stroke-linejoin:miter;stroke-miterlimit:4;stroke-dasharray:none;stroke-opacity:1;marker-mid:url(#Arrow2Lstart)"
       d="m 124.15314,93.171151 v 3.48399 5.727179"
       id="path3237-53"
       sodipodi:nodetypes="ccc" />
    <path
       style="fill:none;stroke:#000000;stroke-width:0.165;stroke-linecap:butt;stroke-linejoin:miter;stroke-miterlimit:4;stroke-dasharray:none;stroke-opacity:1;marker-mid:url(#Arrow2Lstart)"
       d="m 124.15314,68.460491 v 3.617626 5.593553"
       id="path3237-5-2"
       sodipodi:nodetypes="ccc" />
    <path
       style="fill:none;stroke:#000000;stroke-width:1.1;stroke-linecap:butt;stroke-linejoin:miter;stroke-miterlimit:4;stroke-dasharray:none;stroke-opacity:1"
       d="m 145.12635,83.23193 -6.02322,1.4e-5"
       id="path11431-2" />
    <path
       id="path11433-1"
       style="fill:#000000;fill-opacity:1;stroke:#000000;stroke-width:1.1;stroke-linecap:square;stroke-linejoin:miter;stroke-miterlimit:4;stroke-dasharray:none;stroke-opacity:1;paint-order:fill markers stroke"
       inkscape:transform-center-x="0.43828982"
       d="m 139.10296,81.713667 v 3.036543 l -2.62972,-1.518265 z" />
    <g
       aria-label="Q1=Q2+W"
       transform="translate(59.354189,-10.589279)"
       id="text11539-6"
       style="font-size:2.82222px;line-height:1.25;font-family:sans-serif;white-space:pre;shape-inside:url(#rect11541-3)">
      <path
         d="m 68.74236,85.138327 q -0.08268,0.02067 -0.163987,0.02894 -0.07993,0.0096 -0.163986,0.0096 -0.239779,0 -0.385851,-0.132291 -0.144694,-0.130914 -0.157096,-0.376204 -0.03307,0.0055 -0.06477,0.0069 -0.03032,0.0028 -0.05926,0.0028 -0.216352,0 -0.394119,-0.07166 -0.176389,-0.07166 -0.300412,-0.208084 -0.124023,-0.136425 -0.191547,-0.334863 -0.06615,-0.198437 -0.06615,-0.453374 0,-0.250803 0.06615,-0.44924 0.06615,-0.199815 0.192925,-0.341753 0.121267,-0.135048 0.300412,-0.206706 0.180523,-0.07166 0.392741,-0.07166 0.220486,0 0.395496,0.07304 0.176389,0.07166 0.299034,0.205328 0.125402,0.137804 0.191548,0.337619 0.06752,0.199815 0.06752,0.453374 0,0.376204 -0.15434,0.633897 -0.152962,0.257693 -0.412033,0.361046 0.0055,0.157096 0.07441,0.243913 0.0689,0.08682 0.250803,0.08682 0.0565,0 0.13367,-0.01792 0.07855,-0.01654 0.111621,-0.03032 h 0.03721 z m -0.325217,-1.528243 q 0,-0.399631 -0.179145,-0.615982 -0.179145,-0.21773 -0.489203,-0.21773 -0.312815,0 -0.49196,0.21773 -0.177766,0.216351 -0.177766,0.615982 0,0.403765 0.181901,0.618739 0.1819,0.213596 0.487825,0.213596 0.305924,0 0.486447,-0.213596 0.181901,-0.214974 0.181901,-0.618739 z"
         style="font-size:2.82222px"
         id="path2038" />
      <path
         d="m 70.351907,84.635344 h -1.110698 v -0.209462 h 0.427192 v -1.375281 h -0.427192 v -0.187413 q 0.08682,0 0.186035,-0.01378 0.09922,-0.01516 0.150206,-0.04272 0.06339,-0.03445 0.09922,-0.08682 0.03721,-0.05374 0.04272,-0.143316 h 0.213596 v 1.849326 h 0.418923 z"
         style="font-size:2.82222px"
         id="path2040" />
      <path
         d="m 72.62429,83.557719 h -1.634352 v -0.220486 h 1.634352 z m 0,0.578775 h -1.634352 v -0.220486 h 1.634352 z"
         style="font-size:2.82222px"
         id="path2042" />
      <path
         d="m 75.06755,85.138327 q -0.08268,0.02067 -0.163986,0.02894 -0.07993,0.0096 -0.163987,0.0096 -0.239778,0 -0.38585,-0.132291 -0.144694,-0.130914 -0.157096,-0.376204 -0.03307,0.0055 -0.06477,0.0069 -0.03032,0.0028 -0.05926,0.0028 -0.216352,0 -0.394118,-0.07166 -0.176389,-0.07166 -0.300412,-0.208084 -0.124024,-0.136425 -0.191548,-0.334863 -0.06614,-0.198437 -0.06614,-0.453374 0,-0.250803 0.06614,-0.44924 0.06615,-0.199815 0.192926,-0.341753 0.121267,-0.135048 0.300412,-0.206706 0.180523,-0.07166 0.39274,-0.07166 0.220486,0 0.395497,0.07304 0.176389,0.07166 0.299034,0.205328 0.125401,0.137804 0.191547,0.337619 0.06752,0.199815 0.06752,0.453374 0,0.376204 -0.15434,0.633897 -0.152962,0.257693 -0.412033,0.361046 0.0055,0.157096 0.07441,0.243913 0.0689,0.08682 0.250802,0.08682 0.0565,0 0.13367,-0.01792 0.07855,-0.01654 0.111621,-0.03032 h 0.03721 z m -0.325217,-1.528243 q 0,-0.399631 -0.179145,-0.615982 -0.179144,-0.21773 -0.489203,-0.21773 -0.312814,0 -0.491959,0.21773 -0.177767,0.216351 -0.177767,0.615982 0,0.403765 0.181901,0.618739 0.181901,0.213596 0.487825,0.213596 0.305925,0 0.486447,-0.213596 0.181901,-0.214974 0.181901,-0.618739 z"
         style="font-size:2.82222px"
         id="path2044" />
      <path
         d="M 76.794231,84.635344 H 75.40517 v -0.28801 q 0.144694,-0.124023 0.289388,-0.248047 0.146071,-0.124023 0.271473,-0.246668 0.264583,-0.256315 0.362424,-0.406521 0.09784,-0.151584 0.09784,-0.326595 0,-0.159852 -0.106109,-0.249425 -0.10473,-0.09095 -0.293522,-0.09095 -0.125401,0 -0.271473,0.0441 -0.146072,0.0441 -0.285254,0.135048 h -0.01378 v -0.289388 q 0.09784,-0.04823 0.260449,-0.08819 0.163987,-0.03996 0.316949,-0.03996 0.31557,0 0.494715,0.152962 0.179145,0.151585 0.179145,0.412034 0,0.117133 -0.03032,0.219107 -0.02894,0.100597 -0.08682,0.191548 -0.05374,0.08544 -0.12678,0.16812 -0.07166,0.08268 -0.17501,0.183279 -0.14745,0.144694 -0.304547,0.28112 -0.157096,0.135047 -0.293522,0.250802 h 1.103808 z"
         style="font-size:2.82222px"
         id="path2046" />
      <path
         d="m 78.997712,83.847107 h -0.75103 v 0.75103 h -0.228754 v -0.75103 h -0.751031 v -0.220486 h 0.751031 V 82.87559 h 0.228754 v 0.751031 h 0.75103 z"
         style="font-size:2.82222px"
         id="path2048" />
      <path
         d="m 81.950846,82.583447 -0.533301,2.051897 h -0.307302 l -0.431326,-1.703254 -0.421679,1.703254 h -0.300412 l -0.542947,-2.051897 h 0.279742 l 0.431325,1.706009 0.424436,-1.706009 h 0.276985 l 0.42857,1.722546 0.428569,-1.722546 z"
         style="font-size:2.82222px"
         id="path2050" />
    </g>
    <g
       aria-label="Q2"
       transform="translate(59.362623,14.136229)"
       id="text11539-0-1"
       style="font-size:2.82222px;line-height:1.25;font-family:sans-serif;white-space:pre;shape-inside:url(#rect11541-0-0)">
      <path
         d="m 68.74236,85.138327 q -0.08268,0.02067 -0.163987,0.02894 -0.07993,0.0096 -0.163986,0.0096 -0.239779,0 -0.385851,-0.132291 -0.144694,-0.130914 -0.157096,-0.376204 -0.03307,0.0055 -0.06477,0.0069 -0.03032,0.0028 -0.05926,0.0028 -0.216352,0 -0.394119,-0.07166 -0.176389,-0.07166 -0.300412,-0.208084 -0.124023,-0.136425 -0.191547,-0.334863 -0.06615,-0.198437 -0.06615,-0.453374 0,-0.250803 0.06615,-0.44924 0.06615,-0.199815 0.192925,-0.341753 0.121267,-0.135048 0.300412,-0.206706 0.180523,-0.07166 0.392741,-0.07166 0.220486,0 0.395496,0.07304 0.176389,0.07166 0.299034,0.205328 0.125402,0.137804 0.191548,0.337619 0.06752,0.199815 0.06752,0.453374 0,0.376204 -0.15434,0.633897 -0.152962,0.257693 -0.412033,0.361046 0.0055,0.157096 0.07441,0.243913 0.0689,0.08682 0.250803,0.08682 0.0565,0 0.13367,-0.01792 0.07855,-0.01654 0.111621,-0.03032 h 0.03721 z m -0.325217,-1.528243 q 0,-0.399631 -0.179145,-0.615982 -0.179145,-0.21773 -0.489203,-0.21773 -0.312815,0 -0.49196,0.21773 -0.177766,0.216351 -0.177766,0.615982 0,0.403765 0.181901,0.618739 0.1819,0.213596 0.487825,0.213596 0.305924,0 0.486447,-0.213596 0.181901,-0.214974 0.181901,-0.618739 z"
         style="font-size:2.82222px"
         id="path2077" />
      <path
         d="m 70.46904,84.635344 h -1.389061 v -0.28801 q 0.144694,-0.124023 0.289388,-0.248047 0.146071,-0.124023 0.271473,-0.246668 0.264583,-0.256315 0.362424,-0.406521 0.09784,-0.151584 0.09784,-0.326595 0,-0.159852 -0.106109,-0.249425 -0.10473,-0.09095 -0.293522,-0.09095 -0.125401,0 -0.271473,0.0441 -0.146072,0.0441 -0.285254,0.135048 h -0.01378 v -0.289388 q 0.09784,-0.04823 0.260449,-0.08819 0.163987,-0.03996 0.316949,-0.03996 0.31557,0 0.494715,0.152962 0.179145,0.151585 0.179145,0.412034 0,0.117133 -0.03032,0.219107 -0.02894,0.100597 -0.08682,0.191548 -0.05374,0.08544 -0.12678,0.16812 -0.07166,0.08268 -0.17501,0.183279 -0.14745,0.144694 -0.304547,0.28112 -0.157096,0.135047 -0.293522,0.250802 h 1.103808 z"
         style="font-size:2.82222px"
         id="path2079" />
    </g>
    <g
       aria-label="W"
       id="text11583-1"
       style="font-size:2.82222px;line-height:1.25;font-family:sans-serif;stroke-width:0.264583"
       transform="translate(21.050674,-9.0774514)">
      <path
         d="m 122.77031,88.209554 -0.5333,2.051898 h -0.30731 l -0.43132,-1.703254 -0.42168,1.703254 h -0.30041 l -0.54295,-2.051898 h 0.27974 l 0.43133,1.70601 0.42443,-1.70601 h 0.27699 l 0.42857,1.722547 0.42857,-1.722547 z"
         style="font-size:2.82222px;stroke-width:0.264583"
         id="path2106" />
    </g>
    <g
       aria-label="(a)"
       transform="translate(3.6707156,-0.1858001)"
       id="text1519"
       style="font-size:2.11667px;line-height:1.25;font-family:sans-serif;white-space:pre;shape-inside:url(#rect1521)">
      <path
         d="m 78.713551,116.87645 h -0.236678 q -0.182935,-0.20981 -0.284221,-0.45786 -0.101286,-0.24804 -0.101286,-0.55914 0,-0.31109 0.101286,-0.55914 0.101286,-0.24804 0.284221,-0.45785 h 0.236678 v 0.0103 q -0.08372,0.0754 -0.160197,0.17466 -0.07545,0.0982 -0.14056,0.22945 -0.06201,0.12712 -0.101286,0.28008 -0.03824,0.15297 -0.03824,0.32246 0,0.17674 0.03721,0.3235 0.03824,0.14676 0.10232,0.27905 0.06201,0.12713 0.141593,0.22945 0.07958,0.10335 0.159164,0.17466 z"
         id="path1884" />
      <path
         d="m 79.953787,116.45063 h -0.19327 v -0.12299 q -0.02584,0.0176 -0.07028,0.0496 -0.04341,0.031 -0.08475,0.0496 -0.04858,0.0238 -0.111622,0.0393 -0.06305,0.0165 -0.147794,0.0165 -0.156064,0 -0.264584,-0.10335 -0.108521,-0.10335 -0.108521,-0.26355 0,-0.13126 0.05581,-0.21187 0.05684,-0.0816 0.16123,-0.12816 0.105421,-0.0465 0.253215,-0.0631 0.147795,-0.0165 0.317294,-0.0248 v -0.03 q 0,-0.0662 -0.02377,-0.10956 -0.02274,-0.0434 -0.06615,-0.0682 -0.04134,-0.0238 -0.09922,-0.032 -0.05788,-0.008 -0.120923,-0.008 -0.07648,0 -0.170532,0.0207 -0.09405,0.0196 -0.194304,0.0579 h -0.01033 v -0.19741 q 0.05684,-0.0155 0.164331,-0.0341 0.107487,-0.0186 0.211874,-0.0186 0.121956,0 0.211873,0.0207 0.09095,0.0196 0.157097,0.0682 0.06511,0.0475 0.09922,0.12299 0.03411,0.0755 0.03411,0.18707 z m -0.19327,-0.28422 v -0.32143 q -0.08888,0.005 -0.209806,0.0155 -0.11989,0.0103 -0.19017,0.03 -0.08372,0.0238 -0.135392,0.0744 -0.05168,0.0496 -0.05168,0.13746 0,0.0992 0.05994,0.14987 0.05994,0.0496 0.182935,0.0496 0.102319,0 0.187069,-0.0393 0.08475,-0.0403 0.157096,-0.0961 z"
         id="path1886" />
      <path
         d="m 80.910836,115.85945 q 0,0.3111 -0.101286,0.55914 -0.101286,0.24805 -0.284221,0.45786 h -0.236678 v -0.0103 q 0.07958,-0.0713 0.159164,-0.17466 0.08061,-0.10232 0.141593,-0.22945 0.06408,-0.13229 0.101286,-0.27905 0.03824,-0.14676 0.03824,-0.3235 0,-0.16949 -0.03824,-0.32246 -0.03824,-0.15296 -0.101286,-0.28008 -0.06511,-0.13126 -0.141593,-0.22945 -0.07545,-0.0992 -0.159164,-0.17466 v -0.0103 h 0.236678 q 0.182935,0.20981 0.284221,0.45785 0.101286,0.24805 0.101286,0.55914 z"
         id="path1888" />
    </g>
    <g
       aria-label="(b)"
       transform="translate(44.639261,-0.1351099)"
       id="text1519-4"
       style="font-size:2.11667px;line-height:1.25;font-family:sans-serif;white-space:pre;shape-inside:url(#rect1521-8)">
      <path
         d="m 78.713551,116.87645 h -0.236678 q -0.182935,-0.20981 -0.284221,-0.45786 -0.101286,-0.24804 -0.101286,-0.55914 0,-0.31109 0.101286,-0.55914 0.101286,-0.24804 0.284221,-0.45785 h 0.236678 v 0.0103 q -0.08372,0.0754 -0.160197,0.17466 -0.07545,0.0982 -0.14056,0.22945 -0.06201,0.12712 -0.101286,0.28008 -0.03824,0.15297 -0.03824,0.32246 0,0.17674 0.03721,0.3235 0.03824,0.14676 0.10232,0.27905 0.06201,0.12713 0.141593,0.22945 0.07958,0.10335 0.159164,0.17466 z"
         id="path1915" />
      <path
         d="m 80.072643,115.86462 q 0,0.1447 -0.04134,0.26045 -0.04031,0.11576 -0.109554,0.19431 -0.07338,0.0816 -0.161231,0.12299 -0.08785,0.0403 -0.19327,0.0403 -0.09819,0 -0.171566,-0.0238 -0.07338,-0.0227 -0.144694,-0.062 l -0.0124,0.0537 h -0.181901 v -1.60817 h 0.194304 v 0.57464 q 0.08165,-0.0672 0.173633,-0.10955 0.09198,-0.0434 0.206706,-0.0434 0.204639,0 0.322461,0.1571 0.118856,0.15709 0.118856,0.44338 z m -0.200505,0.005 q 0,-0.20671 -0.06821,-0.31316 -0.06821,-0.10749 -0.220141,-0.10749 -0.08475,0 -0.171567,0.0372 -0.08682,0.0362 -0.16123,0.094 v 0.66146 q 0.08268,0.0372 0.141593,0.0517 0.05994,0.0145 0.135393,0.0145 0.161231,0 0.252181,-0.10542 0.09198,-0.10646 0.09198,-0.3328 z"
         id="path1917" />
      <path
         d="m 80.958379,115.85945 q 0,0.3111 -0.101286,0.55914 -0.101286,0.24805 -0.284221,0.45786 h -0.236678 v -0.0103 q 0.07958,-0.0713 0.159163,-0.17466 0.08062,-0.10232 0.141594,-0.22945 0.06408,-0.13229 0.101286,-0.27905 0.03824,-0.14676 0.03824,-0.3235 0,-0.16949 -0.03824,-0.32246 -0.03824,-0.15296 -0.101286,-0.28008 -0.06511,-0.13126 -0.141594,-0.22945 -0.07545,-0.0992 -0.159163,-0.17466 v -0.0103 h 0.236678 q 0.182935,0.20981 0.284221,0.45785 0.101286,0.24805 0.101286,0.55914 z"
         id="path1919" />
    </g>
    <text
       xml:space="preserve"
       id="text2553"
       style="font-size:2.82222px;line-height:3.5px;font-family:sans-serif;text-align:center;white-space:pre;shape-inside:url(#rect2555);stroke-width:1;stroke-miterlimit:4;stroke-dasharray:none"
       x="7.4179735"
       y="0"
       transform="translate(0,1.7008061)"><tspan
         x="76.163262"
         y="60.435909"><tspan
           style="font-size:2.46944px;text-align:center;text-anchor:middle;stroke-width:1;stroke-miterlimit:4;stroke-dasharray:none">Reservorio 
</tspan></tspan><tspan
         x="78.349946"
         y="64.037274"><tspan
           style="font-size:2.46944px;text-align:center;text-anchor:middle;stroke-width:1;stroke-miterlimit:4;stroke-dasharray:none">caliente</tspan></tspan></text>
    <text
       xml:space="preserve"
       id="text2723"
       style="font-size:2.82222px;line-height:1.25;font-family:sans-serif;text-align:center;white-space:pre;shape-inside:url(#rect2725);stroke-width:1;stroke-miterlimit:4;stroke-dasharray:none"
       x="5.7719131"
       y="0"
       transform="translate(0,1.7008061)"><tspan
         x="77.956862"
         y="80.246672"><tspan
           style="font-size:2.46944px;text-align:center;text-anchor:middle;stroke-width:1;stroke-miterlimit:4;stroke-dasharray:none">Máquina
</tspan></tspan><tspan
         x="78.477759"
         y="83.774451"><tspan
           style="font-size:2.46944px;text-align:center;text-anchor:middle;stroke-width:1;stroke-miterlimit:4;stroke-dasharray:none">térmica</tspan></tspan></text>
    <text
       xml:space="preserve"
       id="text2729"
       style="font-size:2.82222px;line-height:1.25;font-family:sans-serif;text-align:center;white-space:pre;shape-inside:url(#rect2731);stroke-width:1;stroke-miterlimit:4;stroke-dasharray:none"
       x="7.3704371"
       y="0"
       transform="translate(0,1.7008061)"><tspan
         x="76.597343"
         y="100.04355"><tspan
           style="font-size:2.46944px;text-align:center;text-anchor:middle;stroke-width:1;stroke-miterlimit:4;stroke-dasharray:none">Reservorio
</tspan></tspan><tspan
         x="81.102142"
         y="103.57133"><tspan
           style="font-size:2.46944px;text-align:center;text-anchor:middle;stroke-width:1;stroke-miterlimit:4;stroke-dasharray:none">frío</tspan></tspan></text>
    <text
       xml:space="preserve"
       id="text2735"
       style="font-size:2.82222px;line-height:1.25;font-family:sans-serif;text-align:center;white-space:pre;shape-inside:url(#rect2737);stroke-width:1;stroke-miterlimit:4;stroke-dasharray:none"
       x="7.3449435"
       y="0"
       transform="translate(0,1.7008061)"><tspan
         x="117.5993"
         y="60.449797"><tspan
           style="font-size:2.46944px;text-align:center;text-anchor:middle;stroke-width:1;stroke-miterlimit:4;stroke-dasharray:none">Reservorio
</tspan></tspan><tspan
         x="119.3519"
         y="63.977572"><tspan
           style="font-size:2.46944px;text-align:center;text-anchor:middle;stroke-width:1;stroke-miterlimit:4;stroke-dasharray:none">caliente</tspan></tspan></text>
    <text
       xml:space="preserve"
       id="text2741"
       style="font-size:2.82222px;line-height:1.25;font-family:sans-serif;text-align:center;white-space:pre;shape-inside:url(#rect2743);stroke-width:1;stroke-miterlimit:4;stroke-dasharray:none"
       x="9.6958694"
       y="0"
       transform="translate(0,1.7008061)"><tspan
         x="119.84469"
         y="80.246672"><tspan
           style="font-size:2.46944px">Bomba
</tspan></tspan><tspan
         x="119.21346"
         y="83.774451"><tspan
           style="font-size:2.46944px">de calor
</tspan></tspan><tspan
         x="115.60938"
         y="87.302229"><tspan
           style="font-size:2.46944px">o refrigerador</tspan><tspan
           style="font-size:2.82222px;text-align:center;text-anchor:middle;stroke-width:1;stroke-miterlimit:4;stroke-dasharray:none"> </tspan></tspan></text>
    <text
       xml:space="preserve"
       id="text2747"
       style="font-size:2.82222px;line-height:1.25;font-family:sans-serif;text-align:center;white-space:pre;shape-inside:url(#rect2749);stroke-width:1;stroke-miterlimit:4;stroke-dasharray:none"
       x="7.3704371"
       y="0"
       transform="translate(0,1.7008061)"><tspan
         x="117.5993"
         y="104.95761"><tspan
           style="font-size:2.46944px;text-align:center;text-anchor:middle;stroke-width:1;stroke-miterlimit:4;stroke-dasharray:none">Reservorio
</tspan></tspan><tspan
         x="122.1041"
         y="108.48539"><tspan
           style="font-size:2.46944px;text-align:center;text-anchor:middle;stroke-width:1;stroke-miterlimit:4;stroke-dasharray:none">frío</tspan></tspan></text>
  </g>
</svg>
